<?xml version="1.0" encoding="utf-8"?>
<!-- Generator: Adobe Illustrator 25.1.0, SVG Export Plug-In . SVG Version: 6.00 Build 0)  -->
<svg version="1.1" id="Layer_1" xmlns="http://www.w3.org/2000/svg" xmlns:xlink="http://www.w3.org/1999/xlink" x="0px" y="0px"
	 viewBox="0 0 235 50" style="enable-background:new 0 0 235 50;" xml:space="preserve">
<style type="text/css">
	.st0{fill:#FFFFFF;}
</style>
<g>
	<path class="st0" d="M68.7,2.1H72v12.6c0,0.8,0.1,1.6,0.4,2.3c0.6,1.5,1.7,2.6,3.1,3.2c0.8,0.3,1.6,0.5,2.5,0.5
		c0.9,0,1.7-0.1,2.5-0.5c0.7-0.3,1.4-0.7,1.9-1.3c0.5-0.5,0.9-1.2,1.2-1.9c0.3-0.7,0.4-1.5,0.4-2.3V2.1h1.4v12.6
		c0,1-0.2,1.9-0.6,2.8c-0.3,0.9-0.8,1.7-1.5,2.3c-0.8,0.7-1.7,1.2-2.7,1.6c-1.2,0.4-2.6,0.6-3.9,0.6c-1.2,0-2.4-0.2-3.6-0.6
		c-1-0.3-1.8-0.9-2.6-1.6c-0.7-0.6-1.3-1.4-1.7-2.3c-0.4-0.9-0.5-1.9-0.5-2.9L68.7,2.1z M100.5,20.8c0.5,0,1-0.1,1.4-0.2
		c0.5-0.1,0.9-0.3,1.3-0.6c0.4-0.2,0.7-0.6,0.9-1c0.2-0.4,0.3-0.9,0.3-1.3c0-0.6-0.1-1.2-0.5-1.7c-0.3-0.5-0.7-0.9-1.2-1.3
		c-0.5-0.4-1.1-0.8-1.7-1.1l-1.9-1c-0.7-0.4-1.3-0.7-1.9-1.1c-0.6-0.4-1.2-0.8-1.7-1.3c-0.5-0.4-0.9-1-1.2-1.6
		c-0.3-0.6-0.5-1.3-0.5-2c0-0.7,0.1-1.4,0.4-2.1c0.3-0.6,0.7-1.2,1.2-1.7c0.6-0.5,1.3-0.9,2-1.1c0.8-0.2,1.7-0.4,2.6-0.3
		c0.8,0,1.7,0.1,2.4,0.3c0.7,0.2,1.3,0.5,1.9,0.9c0.5,0.4,1,0.9,1.4,1.4c0.4,0.6,0.7,1.2,0.9,1.9l-1.7,0.8c-0.2-0.6-0.4-1.2-0.8-1.7
		c-0.3-0.5-0.6-0.9-1-1.2c-0.4-0.3-1-0.6-1.5-0.7C101.2,3.1,100.6,3,100,3c-0.6,0-1.1,0.1-1.7,0.2c-0.4,0.2-0.8,0.4-1.2,0.7
		c-0.3,0.3-0.5,0.6-0.7,0.9c-0.1,0.3-0.2,0.7-0.2,1.1c0,0.5,0.2,1,0.5,1.4c0.3,0.5,0.8,0.9,1.2,1.2c0.6,0.4,1.2,0.8,1.8,1.1l2,1.1
		c0.7,0.4,1.3,0.7,2,1.1c0.6,0.4,1.2,0.8,1.8,1.3c0.5,0.4,0.9,0.9,1.2,1.5c0.3,0.6,0.5,1.2,0.5,1.8c0,0.8-0.1,1.5-0.4,2.2
		c-0.3,0.7-0.7,1.3-1.3,1.8c-0.6,0.6-1.4,1-2.2,1.3c-1,0.3-2,0.4-3,0.4c-0.8,0-1.7-0.1-2.5-0.3c-0.7-0.2-1.3-0.5-1.9-0.9
		c-0.6-0.4-1-0.9-1.4-1.4c-0.4-0.6-0.8-1.2-1-1.9l1.8-0.7c0.2,0.6,0.5,1.2,0.8,1.7c0.7,1,1.6,1.7,2.7,2.1
		C99.3,20.7,99.9,20.8,100.5,20.8L100.5,20.8z M128.5,11.9c0,1.2,0.2,2.5,0.6,3.7c0.4,1,0.9,1.9,1.7,2.7c0.7,0.7,1.6,1.3,2.6,1.7
		c1,0.4,2.1,0.6,3.2,0.6c0.7,0,1.3-0.1,2-0.4c0.6-0.3,1.2-0.6,1.8-1c1.1-0.8,1.9-1.9,2.5-3l1.4,0.9c-0.4,0.7-0.9,1.3-1.4,1.9
		c-0.6,0.6-1.2,1.2-1.9,1.7c-0.8,0.5-1.6,0.9-2.5,1.1c-1,0.3-2,0.4-3,0.4c-1.5,0-3-0.3-4.4-0.8c-1.2-0.5-2.4-1.2-3.3-2.2
		c-1.9-1.9-2.9-4.4-2.9-7.1c0-0.9,0.1-1.8,0.3-2.7c0.2-0.9,0.6-1.7,1-2.4c0.5-0.8,1-1.5,1.7-2.1c1.3-1.3,3-2.2,4.8-2.7
		c1-0.3,2-0.4,3-0.4c1,0,1.9,0.2,2.8,0.4c0.8,0.3,1.6,0.6,2.4,1.1c0.7,0.5,1.3,1,1.9,1.7c0.6,0.5,1.1,1.1,1.5,1.8l-1.4,0.9
		c-0.6-1.3-1.6-2.5-2.7-3.4c-1-0.7-2.2-1.1-3.5-1.1c-1.1,0-2.2,0.2-3.2,0.6c-1,0.4-1.8,1-2.6,1.8c-0.7,0.8-1.3,1.8-1.7,2.8
		C128.7,9.4,128.5,10.7,128.5,11.9L128.5,11.9z M162.2,22c-2.8,0-5.6-1-7.6-3c-1-1-1.7-2.1-2.3-3.3c-0.6-1.3-0.8-2.6-0.8-4
		c0-0.9,0.1-1.8,0.4-2.7c0.2-0.8,0.6-1.6,1.1-2.3c0.5-0.7,1-1.4,1.7-2c0.7-0.6,1.4-1.1,2.2-1.6c0.8-0.4,1.7-0.8,2.6-1
		c1.9-0.5,3.9-0.5,5.8,0c1.8,0.4,3.4,1.3,4.7,2.6c0.6,0.6,1.2,1.3,1.7,2c0.5,0.7,0.8,1.6,1.1,2.4c0.2,0.9,0.4,1.8,0.4,2.7
		c0,1.8-0.5,3.6-1.4,5.2c-0.5,0.8-1,1.5-1.7,2.1c-0.6,0.6-1.4,1.2-2.2,1.7c-0.8,0.5-1.7,0.8-2.6,1C164.2,21.9,163.2,22,162.2,22
		L162.2,22z M162.2,21c1,0,2-0.2,2.9-0.7c0.9-0.5,1.6-1.1,2.2-1.9c0.6-0.9,1.1-1.9,1.3-2.9c0.3-1.2,0.5-2.5,0.4-3.7
		c0-1.2-0.1-2.5-0.4-3.7c-0.3-1-0.7-2-1.3-2.9c-0.6-0.8-1.3-1.4-2.2-1.9c-0.9-0.5-1.9-0.7-2.9-0.7c-1,0-2.1,0.2-3,0.7
		c-0.9,0.5-1.6,1.1-2.1,1.9c-0.6,0.9-1.1,1.8-1.3,2.9c-0.3,1.2-0.4,2.4-0.4,3.7c0,1.3,0.1,2.5,0.4,3.7c0.3,1.1,0.7,2.1,1.3,3
		C158.2,20.1,160.2,21.1,162.2,21L162.2,21z M181.9,2.1l7.3,15.5l6.8-15.5h1.6L188.8,22H188l-9.5-19.9H181.9z M204.1,2.1h3.3v19.4
		h-3.3V2.1z M216.3,2.1h6.5c1.7,0,3.5,0.2,5.1,0.6c1.3,0.3,2.5,0.9,3.6,1.8c1,0.9,1.9,2,2.5,3.2c0.6,1.2,0.8,2.6,0.8,4
		c0,1.3-0.2,2.6-0.8,3.9c-0.5,1.2-1.2,2.3-2.2,3.1c-1,1-2.3,1.7-3.6,2.1c-1.5,0.5-3.2,0.8-4.8,0.8h-7.2L216.3,2.1L216.3,2.1z
		 M219.7,20.1h3.5c1.1,0,2.1-0.2,3.1-0.5c1-0.4,1.8-0.9,2.5-1.7c0.7-0.7,1.3-1.6,1.7-2.6c0.4-1.2,0.6-2.4,0.6-3.6
		c0-1.1-0.2-2.3-0.6-3.3c-0.4-1-0.9-1.8-1.7-2.6c-0.7-0.7-1.6-1.3-2.5-1.7c-1-0.4-2.1-0.6-3.2-0.6h-3.5L219.7,20.1L219.7,20.1z
		 M73.2,35l6.1,13.3h-2.2l-2-4.3h-5.6l-2,4.2h-1.1l6.2-13.3C72.6,34.9,73.2,35,73.2,35z M69.8,43.1h4.8l-2.3-5.2L69.8,43.1z
		 M117.8,35.3v0.8h-4.7v12.1h-2.2V36.1h-4.7v-0.8H117.8z M146.5,35.3h2.2v12.1h6.5v0.9h-8.7V35.3z M188.8,35l6.1,13.3h-2.2l-2-4.3
		h-5.6l-2,4.3H182l6.2-13.3H188.8z M185.5,43.1h4.8l-2.4-5.1L185.5,43.1z M227.5,47.7c0.3,0,0.6,0,0.9-0.1c0.3-0.1,0.6-0.2,0.8-0.4
		c0.2-0.2,0.4-0.4,0.6-0.6c0.1-0.3,0.2-0.6,0.2-0.9c0-0.4-0.1-0.7-0.3-1.1c-0.2-0.3-0.5-0.6-0.8-0.8c-0.4-0.3-0.7-0.5-1.1-0.7
		c-0.4-0.2-0.9-0.5-1.3-0.7c-0.4-0.2-0.9-0.5-1.3-0.7c-0.4-0.2-0.8-0.5-1.1-0.8c-0.3-0.3-0.6-0.6-0.8-1c-0.2-0.4-0.3-0.9-0.3-1.3
		c0-0.5,0.1-0.9,0.3-1.4c0.2-0.4,0.5-0.8,0.8-1.1c0.4-0.3,0.8-0.6,1.3-0.7c0.6-0.2,1.2-0.3,1.8-0.3c0.6,0,1.1,0.1,1.7,0.2
		c0.5,0.1,0.9,0.3,1.3,0.6c0.4,0.2,0.7,0.6,0.9,0.9c0.3,0.4,0.5,0.8,0.6,1.3l-1.1,0.5c-0.1-0.4-0.3-0.8-0.5-1.1
		c-0.2-0.3-0.4-0.6-0.7-0.8c-0.3-0.2-0.6-0.4-1-0.5c-0.4-0.1-0.8-0.2-1.2-0.2c-0.4,0-0.7,0-1.1,0.2c-0.3,0.1-0.5,0.3-0.8,0.5
		c-0.4,0.3-0.6,0.8-0.6,1.3c0,0.3,0.1,0.7,0.3,0.9c0.2,0.3,0.5,0.6,0.8,0.8c0.4,0.3,0.8,0.5,1.2,0.7l1.4,0.7l1.3,0.8
		c0.4,0.2,0.8,0.5,1.2,0.9c0.3,0.3,0.6,0.6,0.8,1c0.2,0.4,0.3,0.8,0.3,1.2c0,0.5-0.1,1-0.3,1.5c-0.2,0.5-0.5,0.9-0.9,1.2
		c-0.4,0.4-0.9,0.6-1.4,0.8c-0.7,0.2-1.3,0.3-2,0.3c-0.6,0-1.1-0.1-1.7-0.2c-0.5-0.1-0.9-0.3-1.3-0.6c-0.4-0.3-0.7-0.6-1-1
		c-0.3-0.4-0.5-0.8-0.6-1.3l1.1-0.5c0.1,0.4,0.3,0.8,0.6,1.1c0.2,0.3,0.5,0.6,0.8,0.8c0.3,0.2,0.7,0.4,1,0.5
		C226.7,47.7,227.1,47.7,227.5,47.7z"/>
	<path class="st0" d="M0.5,5.5h22.4c0.3,0,0.5,0.2,0.5,0.5v22.4c0,0.3-0.2,0.5-0.5,0.5H0.5c-0.3,0-0.5-0.2-0.5-0.5V6
		C0,5.7,0.2,5.5,0.5,5.5z"/>
	<path class="st0" d="M27.8,17.1H54c0.3,0,0.5,0.2,0.5,0.5v18.5c0,0.3-0.2,0.5-0.5,0.5H27.8c-0.3,0-0.5-0.2-0.5-0.5V17.6
		C27.3,17.4,27.5,17.1,27.8,17.1z"/>
	<path class="st0" d="M8.3,32.8h14.6c0.3,0,0.5,0.2,0.5,0.5v14.6c0,0.3-0.2,0.5-0.5,0.5H8.3c-0.3,0-0.5-0.2-0.5-0.5V33.3
		C7.8,33,8,32.8,8.3,32.8z"/>
	<path class="st0" d="M27.8,1.5h10.7C38.7,1.5,39,1.8,39,2v10.7c0,0.3-0.2,0.5-0.5,0.5H27.8c-0.3,0-0.5-0.2-0.5-0.5V2
		C27.3,1.8,27.5,1.5,27.8,1.5z"/>
</g>
</svg>
